<?xml version="1.0" standalone="no"?>
<!DOCTYPE svg PUBLIC "-//W3C//DTD SVG 20010904//EN"
 "http://www.w3.org/TR/2001/REC-SVG-20010904/DTD/svg10.dtd">
<svg version="1.0" xmlns="http://www.w3.org/2000/svg"
 width="800.000000pt" height="600.000000pt" viewBox="0 0 800.000000 600.000000"
 preserveAspectRatio="xMidYMid meet">

<g transform="translate(0.000000,600.000000) scale(0.100000,-0.100000)"
fill="#000000" stroke="none">
<path d="M0 3000 l0 -3000 4000 0 4000 0 0 3000 0 3000 -4000 0 -4000 0 0
-3000z m5090 389 c141 -22 256 -102 313 -218 30 -61 32 -72 32 -171 0 -94 -3
-111 -27 -160 -36 -73 -87 -131 -146 -167 -228 -141 -522 -63 -635 167 -29 59
-32 73 -32 160 0 86 3 101 32 162 65 139 207 227 378 237 11 0 49 -4 85 -10z
m-3110 -36 c36 -18 83 -48 105 -67 l40 -35 -73 -73 c-60 -61 -75 -71 -89 -62
-13 8 -17 22 -15 52 6 76 -37 112 -133 112 -96 0 -156 -45 -190 -141 -45 -125
18 -298 130 -360 91 -51 215 -48 267 6 12 14 33 25 46 25 21 0 22 -3 22 -91
l0 -91 -183 4 -183 3 -75 37 c-89 44 -165 117 -205 196 -26 51 -29 67 -29 152
0 85 3 101 28 150 49 96 129 162 242 202 37 14 74 18 140 16 79 -3 99 -7 155
-35z m2432 -1 c35 -17 81 -46 103 -65 l40 -34 -65 -69 c-79 -85 -105 -91 -106
-24 -1 83 -42 120 -134 120 -65 0 -108 -18 -147 -64 -110 -124 -63 -359 88
-440 92 -51 222 -44 274 14 10 11 26 20 37 20 16 0 18 -9 18 -95 l0 -95 -117
0 c-65 0 -149 5 -188 10 -146 21 -276 114 -338 239 -29 59 -32 75 -32 151 1
66 6 96 23 134 69 152 217 239 393 233 73 -3 96 -8 151 -35z m-1577 -287 c130
-339 140 -363 173 -378 17 -8 22 -17 20 -36 l-3 -26 -142 -3 -143 -3 0 31 c0
16 4 30 10 30 23 0 20 50 -8 121 l-30 74 -116 3 -116 3 -20 -45 c-10 -25 -25
-64 -31 -87 -12 -39 -11 -43 9 -59 12 -10 22 -29 22 -44 l0 -26 -115 0 -115 0
0 26 c0 14 12 37 26 52 18 19 60 120 140 337 63 171 116 316 119 323 3 9 30
12 106 10 l100 -3 114 -300z m805 281 c84 -44 114 -94 113 -186 -1 -143 -73
-210 -317 -295 l-90 -31 3 -64 c1 -39 8 -71 17 -81 8 -8 14 -28 14 -43 l0 -27
-132 3 c-127 3 -133 4 -136 24 -2 13 7 32 22 48 l26 25 0 274 c0 259 -1 276
-20 300 -11 14 -20 37 -20 52 l0 26 243 -3 c213 -3 246 -5 277 -22z m2236
-121 c26 -80 50 -142 53 -139 3 3 27 67 52 142 l46 137 146 3 c133 2 147 1
147 -15 0 -9 -9 -26 -20 -38 l-21 -22 42 -289 c32 -225 45 -295 61 -317 39
-56 28 -62 -125 -65 l-137 -3 0 25 c0 16 8 30 21 37 26 13 24 37 -19 304 l-28
170 -59 -182 -58 -183 -73 0 -72 0 -40 113 c-21 61 -47 136 -57 165 -9 29 -19
52 -21 50 -2 -2 -15 -80 -28 -173 -14 -94 -28 -185 -31 -203 -5 -26 -1 -37 20
-56 15 -14 25 -33 23 -43 -3 -16 -17 -18 -121 -21 l-117 -3 0 27 c0 14 9 33
21 42 17 15 27 58 65 292 51 318 51 326 24 333 -14 3 -20 14 -20 31 l0 26 140
0 139 0 47 -145z"/>
<path d="M4957 3266 c-96 -26 -148 -105 -155 -235 -12 -209 66 -310 231 -299
88 5 135 37 174 115 24 51 28 69 28 148 0 111 -20 169 -76 220 -62 56 -124 72
-202 51z"/>
<path d="M2556 3113 c-16 -49 -31 -94 -33 -100 -4 -10 13 -13 66 -13 39 0 71
3 71 8 0 14 -65 192 -70 192 -3 0 -19 -39 -34 -87z"/>
<path d="M3368 3263 c-16 -4 -18 -20 -18 -159 0 -85 2 -154 5 -154 12 0 71 34
113 64 83 59 115 154 72 209 -30 38 -111 56 -172 40z"/>
</g>
</svg>
