<?xml version="1.0" standalone="no"?>
<!DOCTYPE svg PUBLIC "-//W3C//DTD SVG 20010904//EN"
 "http://www.w3.org/TR/2001/REC-SVG-20010904/DTD/svg10.dtd">
<svg version="1.0" xmlns="http://www.w3.org/2000/svg"
 width="990.000000pt" height="1024.000000pt" viewBox="0 0 990.000000 1024.000000"
 preserveAspectRatio="xMidYMid meet">

<g transform="translate(0.000000,1024.000000) scale(0.100000,-0.100000)"
fill="#000000" stroke="none">
<path d="M5095 10234 c-442 -26 -746 -69 -1115 -160 -210 -51 -532 -156 -735
-239 -1424 -579 -2505 -1706 -2985 -3111 -298 -871 -338 -1835 -114 -2742 248
-1008 823 -1911 1659 -2607 325 -271 691 -507 1105 -713 620 -309 1260 -505
1980 -607 341 -48 281 -47 2423 -39 l2027 7 1 541 c0 298 8 1170 17 1939 l17
1397 -1065 0 -1065 0 -33 -74 c-210 -467 -734 -744 -1318 -696 -401 33 -694
153 -1021 417 -210 169 -381 391 -509 658 -100 208 -223 622 -273 915 -45 270
-51 417 -26 635 42 359 131 621 286 838 99 138 323 350 488 461 60 40 204 89
350 118 98 19 122 20 187 11 94 -13 169 -50 244 -119 102 -95 160 -214 160
-328 0 -131 -74 -308 -200 -475 -39 -52 -67 -97 -63 -101 4 -4 391 -271 860
-593 l852 -587 114 118 c101 104 747 779 2077 2172 234 245 436 458 449 473
l25 27 -97 143 c-437 645 -1026 1191 -1716 1592 -183 106 -521 269 -721 348
-495 195 -1001 314 -1540 363 -160 14 -603 25 -725 18z m605 -970 c830 -83
1706 -433 2325 -929 177 -142 433 -401 574 -582 l32 -43 -308 -322 c-169 -178
-484 -508 -700 -734 -343 -360 -398 -414 -444 -434 -62 -26 -124 -23 -186 8
-21 11 -96 65 -166 121 -92 73 -127 107 -127 122 0 12 13 43 28 68 128 207
141 547 31 814 -109 263 -396 521 -714 640 -188 71 -365 91 -780 92 -280 0
-321 -2 -426 -22 -156 -30 -280 -72 -424 -142 -690 -339 -1196 -1094 -1286
-1921 -19 -172 -16 -622 5 -802 56 -484 173 -893 394 -1378 80 -176 153 -296
295 -486 186 -248 437 -488 670 -639 267 -173 699 -350 962 -394 212 -36 452
-57 786 -71 316 -13 456 4 692 81 394 129 773 400 883 631 l18 38 243 0 243 0
0 -1009 c0 -556 -3 -1011 -8 -1013 -4 -2 -689 -1 -1522 3 -1628 6 -1579 5
-1935 60 -794 122 -1563 441 -2190 909 -581 432 -1025 951 -1330 1555 -231
457 -362 912 -406 1415 -15 168 -6 609 15 768 100 754 371 1392 844 1984 124
156 432 468 582 590 775 631 1700 982 2735 1038 180 10 398 4 595 -16z"/>
</g>
</svg>
