<svg xmlns="http://www.w3.org/2000/svg" xmlns:xlink="http://www.w3.org/1999/xlink" version="1.1" id="Layer_1" x="0px" y="0px" viewBox="0 0 114 154.3" style="enable-background:new 0 0 114 154.3;" xml:space="preserve">
<style type="text/css">
	.st0{fill:#FFFFFF;}
	.st1{fill:#085EA9;}
	.st2{fill:#151011;}
</style>
<g>
	<g>
		<path class="st0" d="M113.8,0.4h-114v154.3h114V0.4L113.8,0.4z"/>
	</g>
	<polyline points="112.2,2 112.2,153 1.6,153 1.6,2 112.2,2  "/>
	<g>
		<rect x="7.6" y="7.7" class="st0" width="98.7" height="23"/>
	</g>
	<g>
		<rect x="7.8" y="36.4" class="st0" width="98.6" height="89.8"/>
	</g>
	<g>
		<path d="M13.4,12.1c2.2,0,3.1,0.6,3.1,2.6v3c0,1.9-0.9,2.6-2.9,2.6h-0.5v6.1h-1.8V12.1H13.4z M13,18.8h0.3c1.1,0,1.3-0.4,1.3-1.7    v-1.9c0-1.3-0.2-1.7-1.3-1.7H13V18.8z"/>
		<path d="M19.9,12.1c2.1,0,3,0.6,3,2.4v2.3c0,1.4-0.5,2.1-2,2.2c1.6,0.1,2.1,0.8,2.1,2.4v5H21v-5c0-1.3-0.2-1.6-1.5-1.6h-0.4v6.6    h-1.8V12.1H19.9z M19.2,18.3h0.4c1.2,0,1.4-0.4,1.4-1.6v-1.6c0-1.2-0.3-1.6-1.4-1.6h-0.4V18.3z"/>
		<path d="M26.2,12.1v14.3h-1.9V12.1H26.2z"/>
		<path d="M28.8,12.1l1.3,12h0.1l1.2-12h1.6l-1.8,14.3h-2.4l-2-14.3H28.8z"/>
		<path d="M37.8,12.1L40,26.4H38l-0.5-3.6h-2.4l-0.5,3.6H33l2.3-14.3H37.8z M35.4,21.3h2l-0.9-7.6h-0.1L35.4,21.3z"/>
		<path d="M46,16h-1.8v-1c0-1.1-0.2-1.7-0.8-1.7c-0.8,0-0.9,0.6-0.9,2v7.8c0,1.4,0.1,2,0.9,2c0.6,0,0.8-0.5,0.8-1.6v-1.3h1.9v1.3    c0,2.2-0.6,3.1-2.7,3.1c-2.2,0-2.7-1.1-2.7-3.8v-7.1c0-2.7,0.6-3.8,2.7-3.8c2.1,0,2.7,0.9,2.7,3.1v1H46z"/>
		<path d="M47.8,12.1l1.3,6.3h0.1l1.2-6.3H52l-2.2,8.3v5.9H48v-5.9L46,12.1H47.8z"/>
		<path d="M60.8,16H59v-1c0-1.1-0.2-1.7-0.8-1.7c-0.8,0-0.9,0.6-0.9,2v7.8c0,1.4,0.1,2,0.9,2c0.6,0,0.8-0.5,0.8-1.6v-1.3h1.9v1.3    c0,2.2-0.6,3.1-2.7,3.1c-2.2,0-2.7-1.1-2.7-3.8v-7.1c0-2.7,0.6-3.8,2.7-3.8s2.7,0.9,2.7,3.1L60.8,16L60.8,16z"/>
		<path d="M66.2,12.1v1.5h-2.4v4.5h2.3v1.5h-2.3v5.2h2.6v1.5h-4.4V12.1H66.2z"/>
		<path d="M69.8,12.1c2.1,0,3,0.6,3,2.4v2.3c0,1.4-0.5,2.1-2,2.2c1.6,0.1,2.1,0.8,2.1,2.4v5H71v-5c0-1.3-0.2-1.6-1.5-1.6h-0.4v6.6    h-1.8V12.1H69.8z M69.2,18.3h0.4c1.2,0,1.4-0.4,1.4-1.6v-1.6c0-1.2-0.3-1.6-1.4-1.6h-0.4V18.3z"/>
		<path d="M78.8,12.1v1.5h-1.7v12.7h-1.9V13.6h-1.7v-1.5H78.8z"/>
		<path d="M81.3,12.1v14.3h-1.9V12.1H81.3z"/>
		<path d="M87.2,12.1v1.5h-2.4v4.7h2.3v1.5h-2.3v6.6h-1.8V12.1H87.2z"/>
		<path d="M90.1,12.1v14.3h-1.9V12.1H90.1z"/>
		<path d="M95.8,12.1v1.5h-2.4v4.5h2.3v1.5h-2.3v5.2H96v1.5h-4.4V12.1H95.8z"/>
		<path d="M99.1,12.1c3,0,3.6,0.8,3.6,4v6.3c0,3.1-0.6,4-3.6,4h-1.9V12.1H99.1z M99,24.9h0.4c1.2,0,1.5-0.3,1.5-1.6v-8.2    c0-1.2-0.3-1.6-1.5-1.6H99V24.9z"/>
	</g>
	<g>
		<g>
			<polygon class="st0" points="7.9,145.8 7.9,132.3 27.7,132.3 27.7,135.5 15.9,135.5 15.9,137.4 25.9,137.4 25.9,140.6      15.9,140.6 15.9,142.7 28.2,142.7 28.2,145.8    "/>
		</g>
		<g>
			<path class="st0" d="M45.1,136.3c-0.1-0.5-0.6-0.7-1.2-0.9c-0.6-0.2-1.3-0.2-2.1-0.2c-1.8,0-2.5,0.3-2.5,0.8c0,2,14,0.8,14,5.7     c0,3.1-4.7,4.7-11.4,4.7c-6.4,0-10.6-2.1-10.8-4.5h7.6c0.2,0.5,0.6,0.8,1.3,1.1c0.6,0.2,1.5,0.3,2.3,0.3c2,0,3.3-0.3,3.3-1     c0-2-14-0.6-14-5.8c0-2.9,4.5-4.3,10.6-4.3c6.8,0,9.8,1.9,10.4,4.3h-7.5V136.3z"/>
		</g>
		<g>
			<path class="st0" d="M65.2,138.2h3.1c2.5,0,3.8-0.4,3.8-1.3c0-1-1.4-1.4-3.2-1.4h-3.7V138.2z M65.2,141.1v4.7h-8v-13.5h11.5     c8.1,0,10.8,1.2,10.8,3.9c0,1.6-1.2,2.9-4.1,3.3c2.6,0.5,4.1,0.8,4.1,3.6c0,1.8-0.1,2.4,0.8,2.4v0.4h-8.1     c-0.2-0.3-0.4-1.2-0.4-2.4c0-1.8-0.5-2.3-4.3-2.3L65.2,141.1L65.2,141.1z"/>
		</g>
		<g>
			<path class="st0" d="M92.3,135.5v2.3h3.3c1.6,0,2.7-0.4,2.7-1.2c0-1.1-1.6-1.1-3.2-1.1H92.3z M92.3,140.2v2.5h3.5     c2,0,3.5-0.2,3.5-1.2c0-1.2-1.9-1.3-4.4-1.3H92.3z M84.3,145.8v-13.5h11.6c5.5,0,9.8,0.7,9.8,3.4c0,1.4-1.6,2.4-3.2,2.9     c2.6,0.4,4.1,1.6,4.1,3.1c0,3-4.2,4.1-10.5,4.1H84.3z"/>
		</g>
	</g>
	<path class="st0" d="M18.9,66.2c-1.9,1.3-3.3,3-3.2,5.6c0.1,2.7,1.8,4.3,4.1,5.4c-1.3,2.2-1.9,4.3-0.7,6.6c1.2,2.4,3.3,3.2,5.9,3.2   c0,0.7,0,1.2,0,1.7c-0.1,4.1,3.7,6.9,7.6,5.6c1.1-0.4,1.4-0.1,1.8,0.9c1.4,4,6.2,5.2,9.4,2.3c0.3-0.3,0.6-0.5,1-0.9   c1.6,2.1,3.6,3.1,6.1,2.7c2.6-0.4,3.9-2.3,4.9-4.6c2.3,1.2,4.6,1.4,6.7,0c2.2-1.5,2.7-3.7,2.5-6.2c2.5,0,4.7-0.5,6.1-2.7   s1-4.5-0.2-6.8c2.4-0.9,4.1-2.4,4.5-5s-0.9-4.5-2.8-6c0.2-0.2,0.2-0.4,0.3-0.5c3.5-3.2,2-9.2-2.6-10.1c-0.8-0.2-0.7-0.6-0.6-1.2   c0.2-1.1,0.4-2.3,0.2-3.4c-0.6-3-3-4.5-6.4-4.3c-0.9,0.1-1.3-0.1-1.4-1.1c-0.3-3.1-2.8-5.3-5.9-5.1c-1.3,0.1-2.6,0.7-4.1,1.1   c-1.1-1.9-2.6-3.5-5.3-3.6s-4.4,1.3-5.8,3.6c-2-1.7-4.1-2.4-6.6-1.4s-3.5,3-3.8,5.6c-0.4-0.1-0.6-0.1-0.8-0.2   c-5.2-1.1-8.4,3.3-7.1,7.3c0.2,0.7-0.1,0.9-0.8,1.1c-3.5,0.8-5.3,3.4-4.6,6.8C17.5,63.9,18.2,65,18.9,66.2z"/>
	<path class="st0" d="M78.2,72.9c0,0.2-0.1,0.3-0.1,0.4c-0.1,2.8-1.2,5-3.3,6.8c-0.3,0.2-0.4,0.9-0.3,1.4c0.6,4.3-1.8,8.2-6,9.5   c-0.4,0.1-0.7,0.4-1.1,0.6c0.3,0.3,0.6,0.7,0.9,0.9c6.3,3.4,12.6,6.7,18.8,10.1c0.3,0.2,0.7,0.3,1,0.5c0-3.9,0-7.6,0-11.4   c0-0.5,0.4-1.1,0.8-1.4c1.4-1,2.9-1.9,4.3-2.8c1.7-1.1,3.5-2.3,5.4-3.5C91.8,80.1,85.2,76.5,78.2,72.9z"/>
	<path class="st0" d="M54.6,123.4c0.4-0.4,0.6-0.7,0.9-1c2.1-2.7,4.2-5.3,6.4-8c0.3-0.3,0.8-0.7,1.2-0.7c1.5,0.1,2.9,0.3,4.4,0.5   c2.4,0.3,4.7,0.5,7.4,0.8c-2.9-6.9-5.6-13.7-8.4-20.5c-2.7,3.2-4.6,4-8.6,3.8c-0.4,0-1,0.3-1.3,0.7c-1.8,2.1-4,3.2-6.7,3.1   c-1.4-0.1-2.7-0.5-4.2-0.8C48.6,108.7,51.6,116,54.6,123.4z"/>
	<path class="st0" d="M98.6,114.8c-2.6,0-4.6,2-4.6,4.6c0,2.5,2.1,4.5,4.6,4.5c2.6,0,4.5-2,4.5-4.6   C103.1,116.8,101.1,114.8,98.6,114.8z"/>
	<path class="st1" d="M18.9,66.2c-0.6-1.3-1.4-2.4-1.6-3.6c-0.7-3.4,1.2-6,4.6-6.8c0.7-0.2,1-0.4,0.8-1.1c-1.3-4,1.9-8.4,7.1-7.3   c0.2,0,0.5,0.1,0.8,0.2c0.3-2.5,1.3-4.6,3.8-5.6c2.4-0.9,4.5-0.2,6.6,1.4c1.4-2.3,3.1-3.7,5.8-3.6c2.6,0.1,4.2,1.7,5.3,3.6   c1.5-0.4,2.8-1,4.1-1.1c3.1-0.2,5.6,2,5.9,5.1c0.1,1.1,0.5,1.2,1.4,1.1c3.4-0.2,5.8,1.3,6.4,4.3c0.2,1.1,0,2.3-0.2,3.4   c-0.1,0.6-0.2,1.1,0.6,1.2c4.6,1,6.2,6.9,2.6,10.1c-0.1,0.1-0.2,0.3-0.3,0.5c2,1.5,3.2,3.4,2.8,6c-0.4,2.6-2.1,4-4.5,5   c1.2,2.3,1.6,4.5,0.2,6.8c-1.4,2.2-3.6,2.8-6.1,2.7c0.2,2.5-0.3,4.7-2.5,6.2c-2.2,1.4-4.4,1.2-6.7,0c-0.9,2.3-2.2,4.2-4.9,4.6   c-2.6,0.4-4.5-0.6-6.1-2.7c-0.4,0.3-0.7,0.6-1,0.9c-3.2,2.9-8,1.7-9.4-2.3c-0.4-1-0.7-1.3-1.8-0.9c-3.9,1.3-7.7-1.5-7.6-5.6   c0-0.5,0-1,0-1.7c-2.5,0-4.6-0.8-5.9-3.2c-1.2-2.3-0.6-4.5,0.7-6.6c-2.3-1.1-4-2.7-4.1-5.4C15.6,69.2,17,67.5,18.9,66.2z    M45.9,94.9c13.9,0,25.1-11.1,25.2-25c0.1-13.8-11.3-25.1-25.2-25.1c-13.7,0-25,11.2-25,24.9C20.8,83.6,32,94.9,45.9,94.9z"/>
	<path class="st1" d="M78.2,72.9c6.9,3.7,13.6,7.3,20.5,11c-1.9,1.2-3.6,2.4-5.4,3.5c-1.4,0.9-2.9,1.8-4.3,2.8   c-0.4,0.3-0.8,0.9-0.8,1.4c-0.1,3.8,0,7.5,0,11.4c-0.3-0.1-0.7-0.3-1-0.5c-6.3-3.4-12.6-6.7-18.8-10.1c-0.4-0.2-0.6-0.6-0.9-0.9   c0.4-0.2,0.7-0.5,1.1-0.6c4.1-1.3,6.6-5.2,6-9.5c-0.1-0.4,0-1.1,0.3-1.4c2.1-1.8,3.2-4,3.3-6.8C78.2,73.2,78.2,73.1,78.2,72.9z"/>
	<path class="st1" d="M54.6,123.4c-3.1-7.4-6.1-14.7-9.1-22c1.5,0.3,2.8,0.7,4.2,0.8c2.7,0.1,4.9-1,6.7-3.1c0.3-0.4,0.9-0.7,1.3-0.7   c4,0.2,5.9-0.6,8.6-3.8c2.8,6.8,5.6,13.6,8.4,20.5c-2.6-0.3-5-0.6-7.4-0.8c-1.5-0.2-2.9-0.4-4.4-0.5c-0.4,0-1,0.3-1.2,0.7   c-2.2,2.6-4.3,5.3-6.4,8C55.2,122.7,55,123,54.6,123.4z"/>
	<path class="st0" d="M45.9,94.9c-13.9,0-25-11.3-25-25.3c0-13.7,11.3-24.9,25-24.9c13.9,0.1,25.3,11.4,25.2,25.2   S59.7,94.9,45.9,94.9z M33.9,69c0.2-2.3,0.4-4.4,0.7-6.7c-2.7-1-5.1-2.3-6.9-4.7c-2.1,2.6-3.9,8.3-3.6,11.3   C27.4,69,30.6,69,33.9,69z M24,70.9c0.3,4.2,1.4,7.9,3.7,11.4c1.8-2.5,4.3-3.7,6.9-4.8c-0.2-2.3-0.4-4.4-0.7-6.6   C30.6,70.9,27.4,70.9,24,70.9z M64.3,57.7c-1.7,2.2-3.9,3.5-6.4,4.5c-0.3,0.1-0.5,0.6-0.5,1c0.1,1.6,0.3,3.3,0.4,4.9   c0,0.8,0.3,1.1,1.1,1.1c1.9,0,3.8,0,5.8,0c3.4,0,3.4,0,2.8-3.3C67.1,62.9,66.1,60.2,64.3,57.7z M64.3,82.2   c2.1-3.4,3.4-6.9,3.5-10.8c0-0.2-0.6-0.7-0.9-0.7c-2.7-0.1-5.4,0-8,0c-0.7,0-1,0.3-1,1c-0.1,1.7-0.3,3.3-0.4,5c0,0.3,0.3,0.8,0.5,1   C60.5,78.7,62.7,80,64.3,82.2z M53.2,54.1c-2.4,0.5-4.3,0.8-6.2,1.3c-0.3,0.1-0.7,0.4-0.7,0.6c-0.1,2.1,0,4.2,0,6.7   c3.2-0.4,6.2-0.8,9.5-1.3C54.8,58.6,54,56.2,53.2,54.1z M55.8,78.8c-3.2-0.9-6.2-1.4-9.4-1.3c0,2.4,0,4.6,0,6.7   c2.2,0.5,4.4,1.1,6.8,1.7C54,83.7,54.8,81.3,55.8,78.8z M44.8,55.6c-2-0.5-3.8-1-5.9-1.6c-0.8,2.3-1.7,4.6-2.6,7.3   c3.1,0.5,5.8,0.9,8.6,1.3C44.8,60,44.8,57.7,44.8,55.6z M44.7,84.3c0-2.2,0-4.5,0-7c-2.8,0.4-5.5,0.8-8.5,1.3   c1,2.7,1.9,5.1,2.7,7.3C41,85.3,42.8,84.8,44.7,84.3z M46.4,69.1c3.2,0,6.3,0,9.4,0c0.2,0,0.7-0.5,0.6-0.7   c-0.1-1.6-0.2-3.2-0.4-4.8c0-0.2-0.5-0.5-0.7-0.5c-3,0.4-5.9,0.9-8.9,1.4C46.4,65.9,46.4,67.4,46.4,69.1z M46.4,75.4   c3,0.5,5.9,0.9,8.7,1.4c0.7,0.1,1,0,1-0.7c0.1-1.4,0.3-2.7,0.4-4.1c0.1-0.9-0.2-1.3-1.2-1.3c-2.6,0.1-5.3,0-7.9,0   c-0.3,0-0.7,0.1-1,0.1C46.4,72.5,46.4,74,46.4,75.4z M36,63c-0.2,2-0.4,3.9-0.5,6c3.2,0,6.3,0,9.3,0c0-1.6,0-3.2,0-4.7   C41.8,63.9,39,63.5,36,63z M36,76.8c3-0.5,5.9-0.9,8.8-1.3c0-1.5,0-3,0-4.6c-3.1,0-6.1,0-9.3,0C35.6,73,35.8,74.9,36,76.8z    M57.2,60.6c2.2-0.7,4.3-1.8,5.8-3.7c0.2-0.3,0.2-1-0.1-1.2c-1.7-1.6-3.4-3.1-5.2-4.6c-0.2-0.2-0.8-0.2-1,0c-0.8,0.6-1.6,1.4-2.2,2   C55.3,55.5,56.2,58,57.2,60.6z M54.5,86.9c0.7,0.6,1.4,1.3,2.2,1.9c0.2,0.2,0.8,0.2,1,0.1c1.8-1.5,3.6-3.1,5.3-4.7   c0.2-0.2,0.3-0.8,0.1-1c-1.5-2.1-3.6-3.1-5.9-3.9C56.2,81.9,55.3,84.4,54.5,86.9z M34.9,60.6c0.6-1.8,1.1-3.4,1.6-4.9   c0.3-0.9,1.1-1.8,0.9-2.5c-0.1-0.7-1.3-1.2-1.9-1.9c-0.5-0.6-0.9-0.7-1.5-0.2c-1.6,1.5-3.3,2.9-4.9,4.4c-0.6,0.6-0.5,1.1,0,1.6   C30.8,58.8,32.7,59.8,34.9,60.6z M34.8,79.3c-2.1,0.8-4.1,1.7-5.6,3.5c-0.3,0.3-0.5,1-0.3,1.2c1.6,2.1,3.6,3.9,5.9,5.2   c1-0.9,1.8-1.6,2.7-2.3C36.6,84.4,35.8,81.9,34.8,79.3z M46.4,91.4c2.6-0.2,4.2-1.9,5.7-3.9c-1.9-0.8-3.7-1.4-5.7-1.1   C46.4,88.1,46.4,89.7,46.4,91.4z M46.4,48.5c0,1.8,0,3.4,0,5.3c1.9-0.4,3.7-0.8,5.7-1.3C50.6,50.3,49,48.8,46.4,48.5z M44.8,48.6   c-2.1,0.6-3.5,2-4.9,3.9c1.7,0.4,3.2,0.8,4.9,1.2C44.8,51.9,44.8,50.3,44.8,48.6z M39.9,87.4c1.4,1.9,2.8,3.3,4.9,3.9   c0-1.7,0-3.3,0-5.1C43.1,86.6,41.6,86.9,39.9,87.4z M36.2,49.8c0.9,0.7,1.6,1.3,2.3,1.8c1.1-1.2,2-2.3,3-3.4c0-0.1-0.1-0.1-0.1-0.2   C39.8,48.5,38.1,49.1,36.2,49.8z M36.2,90.1c2,0.7,3.6,1.2,5.2,1.8c0-0.1,0.1-0.1,0.1-0.2c-1-1.1-2-2.2-3-3.4   C37.8,88.8,37.2,89.3,36.2,90.1z M53.6,88.3c-1.1,1.2-2.1,2.3-3.1,3.4c0,0.1,0,0.1,0.1,0.2c1.7-0.6,3.3-1.1,5.2-1.8   C54.8,89.4,54.2,88.8,53.6,88.3z M53.6,51.6c0.7-0.5,1.3-1.1,2.2-1.8c-1.9-0.7-3.6-1.2-5.2-1.8c0,0.1,0,0.1,0,0.2   C51.5,49.3,52.5,50.3,53.6,51.6z"/>
	<path class="st1" d="M33.9,69c-3.3,0-6.5,0-9.8,0c-0.3-3,1.5-8.7,3.6-11.3c1.8,2.3,4.2,3.6,6.9,4.7C34.2,64.6,34.1,66.8,33.9,69z"/>
	<path class="st1" d="M24,70.9c3.4,0,6.6,0,9.9,0c0.2,2.2,0.4,4.3,0.7,6.6c-2.6,1-5.1,2.3-6.9,4.8C25.2,78.7,24.2,75,24,70.9z"/>
	<path class="st1" d="M64.3,57.7c1.7,2.5,2.7,5.2,3.3,8.1c0.5,3.3,0.5,3.3-2.9,3.3c-1.9,0-3.8,0-5.8,0c-0.8,0-1.1-0.3-1.1-1.1   c-0.1-1.6-0.3-3.3-0.4-4.9c0-0.3,0.2-0.9,0.5-1C60.5,61.2,62.7,59.9,64.3,57.7z"/>
	<path class="st1" d="M64.3,82.2c-1.7-2.2-3.9-3.5-6.4-4.5c-0.3-0.1-0.5-0.6-0.5-1c0.1-1.7,0.3-3.3,0.4-5c0-0.7,0.3-1,1-1   c2.7,0,5.4,0,8,0c0.3,0,0.9,0.4,0.9,0.7C67.8,75.4,66.5,78.9,64.3,82.2z"/>
	<path class="st1" d="M53.2,54.1c0.8,2.1,1.6,4.5,2.6,7.2c-3.3,0.5-6.3,0.9-9.5,1.3c0-2.4,0-4.6,0-6.7c0-0.2,0.4-0.6,0.7-0.6   C49,54.9,50.8,54.6,53.2,54.1z"/>
	<path class="st1" d="M55.8,78.8c-0.9,2.5-1.8,4.9-2.5,7.1c-2.5-0.6-4.6-1.1-6.8-1.7c0-2.1,0-4.4,0-6.7   C49.5,77.4,52.6,77.9,55.8,78.8z"/>
	<path class="st1" d="M44.8,55.6c0,2.2,0,4.5,0,7c-2.8-0.4-5.5-0.8-8.6-1.3c1-2.7,1.8-5.1,2.6-7.3C40.9,54.5,42.8,55,44.8,55.6z"/>
	<path class="st1" d="M44.7,84.3c-1.9,0.5-3.7,1-5.9,1.6C38,83.7,37,81.3,36,78.6c3-0.5,5.7-0.9,8.6-1.3   C44.7,79.9,44.7,82.1,44.7,84.3z"/>
	<path class="st1" d="M46.4,69.1c0-1.7,0-3.2,0-4.6c3-0.5,6-1,8.9-1.4c0.2,0,0.7,0.3,0.7,0.5c0.2,1.6,0.4,3.2,0.4,4.8   c0,0.2-0.4,0.7-0.6,0.7C52.7,69.1,49.6,69.1,46.4,69.1z"/>
	<path class="st1" d="M46.4,75.4c0-1.4,0-2.9,0-4.5c0.3,0,0.7-0.1,1-0.1c2.6,0,5.3,0,7.9,0c1,0,1.3,0.4,1.2,1.3   c-0.2,1.3-0.3,2.7-0.4,4.1c-0.1,0.7-0.4,0.8-1,0.7C52.2,76.3,49.4,75.9,46.4,75.4z"/>
	<path class="st1" d="M36,63c3,0.5,5.8,0.9,8.8,1.3c0,1.5,0,3,0,4.7c-3.1,0-6.1,0-9.3,0C35.6,67,35.8,65,36,63z"/>
	<path class="st1" d="M36,76.8c-0.2-1.9-0.4-3.9-0.6-5.9c3.2,0,6.3,0,9.3,0c0,1.6,0,3.1,0,4.6C41.9,75.9,39,76.4,36,76.8z"/>
	<path class="st1" d="M57.2,60.6c-0.9-2.6-1.8-5-2.7-7.5c0.7-0.6,1.4-1.4,2.2-2c0.2-0.2,0.8-0.2,1,0c1.8,1.5,3.5,3,5.2,4.6   c0.2,0.2,0.3,0.9,0.1,1.2C61.5,58.8,59.3,59.8,57.2,60.6z"/>
	<path class="st1" d="M54.5,86.9c0.9-2.5,1.8-4.9,2.7-7.5c2.3,0.8,4.4,1.8,5.9,3.9c0.1,0.2,0.1,0.8-0.1,1c-1.7,1.6-3.5,3.1-5.3,4.7   c-0.2,0.2-0.8,0.1-1-0.1C55.8,88.2,55.2,87.5,54.5,86.9z"/>
	<path class="st1" d="M34.9,60.6c-2.2-0.8-4.1-1.8-5.6-3.5c-0.5-0.6-0.7-1.1,0-1.6c1.6-1.5,3.3-2.9,4.9-4.4c0.6-0.5,1-0.4,1.5,0.2   c0.6,0.7,1.7,1.2,1.9,1.9c0.1,0.7-0.6,1.6-0.9,2.5C36,57.3,35.5,58.9,34.9,60.6z"/>
	<path class="st1" d="M34.8,79.3c0.9,2.6,1.8,5.1,2.7,7.6c-0.8,0.7-1.7,1.5-2.7,2.3c-2.3-1.3-4.3-3.1-5.9-5.2   c-0.2-0.2,0.1-0.9,0.3-1.2C30.7,81,32.7,80.1,34.8,79.3z"/>
	<path class="st1" d="M46.4,91.4c0-1.7,0-3.3,0-5c2-0.2,3.8,0.4,5.7,1.1C50.6,89.5,49,91.2,46.4,91.4z"/>
	<path class="st1" d="M46.4,48.5c2.6,0.3,4.2,1.9,5.7,4.1c-2,0.4-3.8,0.8-5.7,1.3C46.4,51.9,46.4,50.2,46.4,48.5z"/>
	<path class="st1" d="M44.8,48.6c0,1.7,0,3.3,0,5.1c-1.6-0.4-3.1-0.8-4.9-1.2C41.2,50.6,42.6,49.2,44.8,48.6z"/>
	<path class="st1" d="M39.9,87.4c1.8-0.4,3.2-0.8,4.9-1.2c0,1.8,0,3.4,0,5.1C42.7,90.7,41.2,89.3,39.9,87.4z"/>
	<path class="st1" d="M36.2,49.8c1.9-0.7,3.5-1.2,5.2-1.8c0,0.1,0.1,0.1,0.1,0.2c-1,1.1-1.9,2.1-3,3.4C37.9,51,37.2,50.5,36.2,49.8z   "/>
	<path class="st1" d="M36.2,90.1c1-0.8,1.6-1.3,2.3-1.8c1.1,1.2,2,2.3,3,3.4c0,0.1-0.1,0.1-0.1,0.2C39.8,91.3,38.2,90.8,36.2,90.1z"/>
	<path class="st1" d="M53.6,88.3c0.6,0.5,1.3,1,2.3,1.8c-1.9,0.7-3.6,1.2-5.2,1.8c0-0.1,0-0.1-0.1-0.2   C51.5,90.6,52.5,89.5,53.6,88.3z"/>
	<path class="st1" d="M53.6,51.6c-1.1-1.2-2.1-2.3-3-3.4c0-0.1,0-0.1,0-0.2c1.6,0.6,3.3,1.1,5.2,1.8C54.8,50.5,54.2,51,53.6,51.6z"/>
	<path class="st0" d="M97.5,119c0-0.7,0.1-1.1,0.1-1.7c0.7,0.2,1.2,0.3,1.8,0.5c0.1,0,0.1,0.5,0,0.5C98.8,118.6,98.2,118.7,97.5,119   z"/>
	<path class="st2" d="M98.5,118.8c0.8,0,1-0.3,1-0.7c0-0.4-0.2-0.6-0.9-0.6h-1v1.3C97.6,118.8,98.5,118.8,98.5,118.8z M97.6,119.6   v2.2h-0.9v-5.1h1.8c1,0,2,0.3,2,1.4c0,0.6-0.4,1-1.1,1.2l0,0c0.7,0.1,0.8,0.5,0.9,1s0.1,1,0.3,1.5h-1.1c-0.1-0.3-0.1-0.6-0.2-0.9   c-0.1-0.4-0.1-0.8-0.3-1.1c-0.2-0.2-0.5-0.2-0.8-0.2L97.6,119.6 M102.3,119.3c0-2-1.7-3.5-3.8-3.5c-2.1,0-3.8,1.6-3.8,3.5   c0,2,1.7,3.6,3.8,3.6C100.7,122.8,102.3,121.2,102.3,119.3 M93.8,119.3c0-2.4,2.1-4.3,4.7-4.3s4.6,1.9,4.6,4.3   c0,2.4-2.1,4.3-4.6,4.3C96,123.6,93.8,121.6,93.8,119.3"/>
</g>
</svg>